<svg width="415" height="415" viewBox="0 0 415 415" fill="none" xmlns="http://www.w3.org/2000/svg">
<path d="M153.983 141.279C177.548 119.781 209.629 117.943 236.513 135.413C243.834 140.17 254.017 139.321 259.034 132.176C263.04 126.47 262.375 118.624 256.929 114.271C227.933 91.0913 184.925 78.903 138.483 113.779C93.3871 147.643 97.167 208.183 117.38 241.028C121.957 248.465 132.017 248.604 138.416 242.663C144.011 237.467 145.142 229.134 141.958 222.194C128.221 192.251 129.613 163.511 153.983 141.279Z" fill="black"/>
<path d="M207.5 204C162 237 105.438 283.84 103 313C152.503 280.721 187.5 261 228 235.5C268.5 210 322.068 174.745 292 103C267.29 140.835 253 171 207.5 204Z" fill="black"/>
<path d="M231.524 250.568C193.447 270.725 145.399 300.285 140 322.57C180.983 303.446 209.577 292.325 242.995 277.382C276.413 262.439 320.802 241.492 307.109 182.389C283.988 208.752 269.602 230.411 231.524 250.568Z" fill="black"/>
</svg>
