<svg width="193" height="45" viewBox="0 0 193 45" fill="none" xmlns="http://www.w3.org/2000/svg">
<path d="M13.9286 18.2143V26.7857M18.2143 13.9285V33.2143M22.5 20.3571V24.6428M26.7857 16.0714V30.6728M31.0714 9.64282V35.3571" stroke="black" stroke-linecap="round" stroke-linejoin="round"/>
<path d="M97.9286 18.2143V26.7857M102.214 13.9285V33.2143M106.5 20.3571V24.6428M110.786 16.0714V30.6728M115.071 9.64282V35.3571" stroke="white" stroke-linecap="round" stroke-linejoin="round"/>
<path d="M53.0714 18.2143V26.7857M48.7857 13.9285V33.2143M44.5 20.3571V24.6428M40.2143 16.0714V30.6728M35.9286 9.64282V35.3571" stroke="black" stroke-linecap="round" stroke-linejoin="round"/>
<path d="M137.071 18.2143V26.7857M132.786 13.9285V33.2143M128.5 20.3571V24.6428M124.214 16.0714V30.6728M119.929 9.64282V35.3571" stroke="white" stroke-linecap="round" stroke-linejoin="round"/>
<path d="M55.9286 18.2143V26.7857M60.2143 13.9285V33.2143M64.5 20.3571V24.6428M68.7857 16.0714V30.6728M73.0714 9.64282V35.3571" stroke="black" stroke-linecap="round" stroke-linejoin="round"/>
<path d="M139.929 18.2143V26.7857M144.214 13.9285V33.2143M148.5 20.3571V24.6428M152.786 16.0714V30.6728M157.071 9.64282V35.3571" stroke="white" stroke-linecap="round" stroke-linejoin="round"/>
<path d="M95.0714 18.2143V26.7857M90.7857 13.9285V33.2143M86.5 20.3571V24.6428M82.2143 16.0714V30.6728M77.9286 9.64282V35.3571" stroke="black" stroke-linecap="round" stroke-linejoin="round"/>
<path d="M179.071 18.2143V26.7857M174.786 13.9285V33.2143M170.5 20.3571V24.6428M166.214 16.0714V30.6728M161.929 9.64282V35.3571" stroke="white" stroke-linecap="round" stroke-linejoin="round"/>
</svg>
