<svg width="83" height="18" viewBox="0 0 83 18" fill="none" xmlns="http://www.w3.org/2000/svg">
<path d="M53.7191 9.45455H54.9176L57.0014 14.5426H57.0781L59.1619 9.45455H60.3604V16H59.4208V11.2635H59.3601L57.4297 15.9904H56.6499L54.7195 11.2603H54.6587V16H53.7191V9.45455ZM63.8353 16.0991C63.3517 16.0991 62.9351 15.9957 62.5857 15.7891C62.2384 15.5803 61.9699 15.2873 61.7803 14.9102C61.5928 14.5309 61.499 14.0866 61.499 13.5774C61.499 13.0746 61.5928 12.6314 61.7803 12.2479C61.9699 11.8643 62.2341 11.565 62.5729 11.3498C62.9138 11.1346 63.3122 11.027 63.7682 11.027C64.0452 11.027 64.3137 11.0728 64.5736 11.1644C64.8335 11.256 65.0669 11.3999 65.2735 11.5959C65.4802 11.7919 65.6432 12.0465 65.7625 12.3597C65.8818 12.6708 65.9415 13.049 65.9415 13.4943V13.8331H62.0392V13.1172H65.0051C65.0051 12.8658 64.9539 12.6431 64.8517 12.4492C64.7494 12.2532 64.6056 12.0987 64.4202 11.9858C64.2369 11.8729 64.0218 11.8164 63.7746 11.8164C63.5061 11.8164 63.2718 11.8825 63.0715 12.0146C62.8733 12.1445 62.7199 12.315 62.6112 12.5259C62.5047 12.7347 62.4514 12.9616 62.4514 13.2067V13.766C62.4514 14.0941 62.509 14.3732 62.624 14.6033C62.7412 14.8335 62.9042 15.0092 63.113 15.1307C63.3218 15.25 63.5658 15.3097 63.8449 15.3097C64.026 15.3097 64.1911 15.2841 64.3403 15.233C64.4894 15.1797 64.6183 15.1009 64.727 14.9964C64.8357 14.892 64.9188 14.7631 64.9763 14.6097L65.8808 14.7727C65.8083 15.0391 65.6784 15.2724 65.4909 15.4727C65.3055 15.6708 65.0722 15.8253 64.7909 15.9361C64.5118 16.0447 64.1933 16.0991 63.8353 16.0991ZM67.9574 13.0852V16H67.0018V11.0909H67.919V11.8899H67.9798C68.0927 11.63 68.2695 11.4212 68.5103 11.2635C68.7532 11.1058 69.0589 11.027 69.4276 11.027C69.7621 11.027 70.055 11.0973 70.3065 11.2379C70.5579 11.3764 70.7528 11.5831 70.8913 11.858C71.0298 12.1328 71.0991 12.4727 71.0991 12.8775V16H70.1435V12.9925C70.1435 12.6367 70.0508 12.3587 69.8654 12.1584C69.68 11.956 69.4254 11.8548 69.1016 11.8548C68.88 11.8548 68.6829 11.9027 68.5103 11.9986C68.3398 12.0945 68.2045 12.2351 68.1044 12.4205C68.0064 12.6037 67.9574 12.8253 67.9574 13.0852ZM75.4904 13.9641V11.0909H76.4492V16H75.5096V15.1499H75.4585C75.3455 15.4119 75.1644 15.6303 74.9151 15.805C74.668 15.9776 74.3601 16.0639 73.9915 16.0639C73.6761 16.0639 73.397 15.9947 73.1541 15.8562C72.9134 15.7156 72.7237 15.5078 72.5852 15.233C72.4489 14.9581 72.3807 14.6183 72.3807 14.2134V11.0909H73.3363V14.0984C73.3363 14.4329 73.429 14.6992 73.6143 14.8974C73.7997 15.0955 74.0405 15.1946 74.3366 15.1946C74.5156 15.1946 74.6935 15.1499 74.8704 15.0604C75.0494 14.9709 75.1974 14.8356 75.3146 14.6545C75.4339 14.4734 75.4925 14.2433 75.4904 13.9641Z" fill="black"/>
<line y1="13" x2="46" y2="13" stroke="black" stroke-width="2"/>
<line y1="1" x2="83" y2="1" stroke="black" stroke-width="2"/>
</svg>
