<svg width="24" height="24" viewBox="0 0 24 24" fill="none" xmlns="http://www.w3.org/2000/svg">
<path d="M13 3C15.1217 3 17.1566 3.84285 18.6569 5.34315C20.1571 6.84344 21 8.87827 21 11M13.5 6.5C14.5609 6.5 15.5783 6.92143 16.3284 7.67157C17.0786 8.42172 17.5 9.43913 17.5 10.5" stroke="black" stroke-width="1.5" stroke-linecap="round" stroke-linejoin="round"/>
<path d="M9.15798 5.712L8.75598 4.806C8.49198 4.214 8.36098 3.918 8.16398 3.691C7.91753 3.40671 7.59588 3.19771 7.23598 3.088C6.94898 3 6.62398 3 5.97598 3C5.02798 3 4.55398 3 4.15598 3.182C3.66501 3.42054 3.28497 3.83927 3.09498 4.351C2.95198 4.764 2.99298 5.189 3.07498 6.04C3.94832 15.09 8.90998 20.0517 17.96 20.925C18.81 21.007 19.236 21.048 19.65 20.905C20.1612 20.715 20.5795 20.3354 20.818 19.845C21 19.446 21 18.972 21 18.024C21 17.375 21 17.051 20.912 16.764C20.8023 16.4041 20.5933 16.0825 20.309 15.836C20.082 15.639 19.786 15.508 19.194 15.244L18.288 14.842C17.646 14.557 17.326 14.414 17 14.383C16.6879 14.353 16.373 14.3969 16.081 14.511C15.776 14.63 15.506 14.854 14.967 15.304C14.43 15.751 14.162 15.974 13.834 16.094C13.5188 16.203 13.1827 16.2376 12.852 16.195C12.507 16.145 12.242 16.003 11.713 15.72C10.067 14.84 9.15998 13.933 8.27998 12.287C7.99698 11.757 7.85598 11.493 7.80498 11.147C7.76239 10.817 7.79661 10.4816 7.90498 10.167C8.02498 9.838 8.24898 9.57 8.69598 9.033C9.14598 8.493 9.36998 8.224 9.48898 7.919C9.60298 7.627 9.64698 7.312 9.61698 7C9.58598 6.675 9.44298 6.354 9.15798 5.712Z" stroke="black" stroke-width="1.5" stroke-linecap="round"/>
</svg>
